<?xml version="1.0" encoding="iso-8859-1"?>
<!-- Generator: Adobe Illustrator 19.0.0, SVG Export Plug-In . SVG Version: 6.00 Build 0)  -->
<svg xmlns="http://www.w3.org/2000/svg" xmlns:xlink="http://www.w3.org/1999/xlink" version="1.1" id="Layer_1" x="0px" y="0px" viewBox="0 0 512 512" style="enable-background:new 0 0 512 512;" xml:space="preserve" width="512px" height="512px">
<g>
	<g>
		<path d="M375.11,33.568c-49.671,0-95.091,27.134-119.11,69.393c-24.019-42.259-69.439-69.393-119.11-69.393    C61.408,33.568,0,94.976,0,170.457c0,69.159,74.159,146.148,129.943,198.045c29.208,27.173,118.379,106.551,119.277,107.35    c1.933,1.721,4.357,2.58,6.78,2.58s4.848-0.86,6.781-2.581c0.897-0.798,90.067-80.177,119.277-107.35    C437.841,316.606,512,239.616,512,170.457C512,94.976,450.592,33.568,375.11,33.568z M368.165,353.567    c-24.326,22.631-90.709,81.882-112.164,101.007c-21.455-19.125-87.838-78.376-112.164-101.007    c-14.989-13.944-50.09-46.6-77.946-82.453c-30.187-38.853-45.492-72.718-45.492-100.656c0-64.234,52.258-116.491,116.491-116.491    c48.842,0,92.857,30.831,109.524,76.718c1.465,4.033,5.295,6.717,9.586,6.717c4.291,0,8.122-2.684,9.586-6.717    c16.668-45.887,60.682-76.718,109.524-76.718c64.234,0,116.491,52.258,116.491,116.491c0,27.938-15.306,61.803-45.492,100.656    C418.255,306.967,383.154,339.622,368.165,353.567z" fill="#ffffff"/>
	</g>
</g>
	<text xmlns="http://www.w3.org/2000/svg" style="fill: rgb(255, 255, 255); font-family: 'Montserrat', sans-serif; font-size: 85px; font-weight: 600; letter-spacing: -1.7px; white-space: pre;" x="138.21" y="265">LOVE</text>

</svg>
